<?xml version="1.0" encoding="utf-8"?>
<!-- Generator: Adobe Illustrator 21.1.0, SVG Export Plug-In . SVG Version: 6.00 Build 0)  -->
<svg version="1.1" id="Layer_1" xmlns="http://www.w3.org/2000/svg" xmlns:xlink="http://www.w3.org/1999/xlink" x="0px" y="0px"
	 viewBox="0 0 200 200" style="enable-background:new 0 0 200 200;" xml:space="preserve">
<style type="text/css">
	.st0{fill:#FFFFFF;}
	.st1{fill:none;stroke:#FFFFFF;stroke-width:4;stroke-miterlimit:10;}
	.st2{fill:#FFFFFF;stroke:#FFFFFF;stroke-miterlimit:10;}
</style>
<g>
	<path class="st0" d="M50.8,11c1,0,1.8,0.8,1.8,1.8s-0.8,1.8-1.8,1.8S49,13.9,49,12.8S49.8,11,50.8,11 M50.8,8
		c-2.7,0-4.8,2.2-4.8,4.8s2.2,4.8,4.8,4.8s4.8-2.2,4.8-4.8S53.5,8,50.8,8L50.8,8z"/>
</g>
<g>
	<path class="st0" d="M50.8,110.3c1,0,1.8,0.8,1.8,1.8s-0.8,1.8-1.8,1.8s-1.8-0.8-1.8-1.8S49.8,110.3,50.8,110.3 M50.8,107.3
		c-2.7,0-4.8,2.2-4.8,4.8s2.2,4.8,4.8,4.8s4.8-2.2,4.8-4.8S53.5,107.3,50.8,107.3L50.8,107.3z"/>
</g>
<g>
	<path class="st0" d="M150.2,110.3c1,0,1.8,0.8,1.8,1.8s-0.8,1.8-1.8,1.8s-1.8-0.8-1.8-1.8S149.1,110.3,150.2,110.3 M150.2,107.3
		c-2.7,0-4.8,2.2-4.8,4.8s2.2,4.8,4.8,4.8c2.7,0,4.8-2.2,4.8-4.8S152.8,107.3,150.2,107.3L150.2,107.3z"/>
</g>
<g>
	<path class="st0" d="M150.2,11c1,0,1.8,0.8,1.8,1.8s-0.8,1.8-1.8,1.8s-1.8-0.8-1.8-1.8S149.1,11,150.2,11 M150.2,8
		c-2.7,0-4.8,2.2-4.8,4.8s2.2,4.8,4.8,4.8c2.7,0,4.8-2.2,4.8-4.8S152.8,8,150.2,8L150.2,8z"/>
</g>
<g>
	<line class="st1" x1="53.6" y1="16.2" x2="146.8" y2="108.8"/>
</g>
<line class="st1" x1="146.8" y1="16.2" x2="54.2" y2="108.8"/>
<g>
	<path class="st0" d="M58.5,53.2H51v-2.7h18.1v2.7h-7.5V75h-3.2V53.2z"/>
</g>
<g>
	<path class="st0" d="M131.3,75V50.5h3.5l7.8,12.4c1.8,2.9,3.2,5.4,4.4,8l0.1,0c-0.3-3.3-0.4-6.2-0.4-10.1V50.5h3V75h-3.2l-7.8-12.4
		c-1.7-2.7-3.3-5.5-4.6-8.2l-0.1,0c0.2,3.1,0.3,6,0.3,10.1V75H131.3z"/>
</g>
<polygon class="st0" points="100.5,85.9 105.2,95.4 115.7,96.9 108.1,104.3 109.9,114.8 100.5,109.9 91.1,114.8 92.9,104.3 
	85.3,96.9 95.8,95.4 "/>
<g>
	<path class="st0" d="M98.1,26c-1.9-4-4.1-8.6-4.7-9.7c-1-2.1,1.7-4.1,1.7-4.1l4.8,10C99.9,22.3,98.1,26,98.1,26z M90.2,35.1
		c0-0.8,0.2-1.6,0.5-2.4c1.1-2.2,3.4-3.4,5.6-2.9c1.2,0.3,1.4-0.3,1.8-1.3l7.9-16.3c0,0,2.7,1.9,1.6,4.1c-0.6,1.3-3.1,6.5-5.3,11
		l0.5,1.1c0.5,1,0.6,1.6,1.8,1.3c2.1-0.5,4.5,0.6,5.6,2.9c0.4,0.8,0.5,1.6,0.5,2.4c0,2.6-1.9,4.6-4.4,4.6c-1.8,0-3.6-1.1-4.6-3
		c-0.9-1.9-0.2-3.2-1.1-5l-0.3-0.6l-0.3,0.6c-0.9,1.8-0.2,3.2-1.1,5c-0.9,1.9-2.7,3-4.6,3C92.2,39.7,90.2,37.8,90.2,35.1z
		 M104.9,32.2c-1.2,0.6-1.6,2.2-0.9,3.5c0.7,1.4,2.2,2.1,3.3,1.5c1.2-0.6,1.6-2.2,0.9-3.5C107.6,32.3,106.1,31.6,104.9,32.2z
		 M100.7,28c0.5,0,0.9-0.4,0.9-0.9c0-0.5-0.4-0.9-0.9-0.9s-0.9,0.4-0.9,0.9C99.9,27.6,100.3,28,100.7,28z M97.1,35.8
		c0.7-1.4,0.3-3-0.9-3.5s-2.7,0.1-3.3,1.5c-0.7,1.4-0.3,3,0.9,3.5C94.9,37.8,96.4,37.2,97.1,35.8z"/>
</g>
<g>
	<path class="st0" d="M15.1,142.7h-7v-2.5h17v2.5h-7v20.4h-3V142.7z"/>
	<path class="st0" d="M27.7,140.5c1.5-0.3,3.6-0.5,5.7-0.5c3.2,0,5.2,0.6,6.6,1.9c1.2,1,1.8,2.6,1.8,4.4c0,3-1.9,5-4.3,5.8v0.1
		c1.8,0.6,2.8,2.2,3.4,4.6c0.7,3.2,1.3,5.4,1.8,6.3h-3.1c-0.4-0.6-0.9-2.6-1.5-5.5c-0.7-3.2-1.9-4.4-4.6-4.5h-2.8v9.9h-3V140.5z
		 M30.6,150.9h3c3.2,0,5.2-1.7,5.2-4.4c0-3-2.1-4.2-5.3-4.3c-1.4,0-2.4,0.1-2.9,0.3V150.9z"/>
	<path class="st0" d="M48.9,140.2v13.6c0,5.1,2.3,7.3,5.3,7.3c3.4,0,5.6-2.2,5.6-7.3v-13.6h3v13.4c0,7-3.7,9.9-8.7,9.9
		c-4.7,0-8.2-2.7-8.2-9.8v-13.5H48.9z"/>
	<path class="st0" d="M79.8,152.4h-8.9v8.3h9.9v2.5H68v-22.9h12.4v2.5h-9.4v7.2h8.9V152.4z"/>
	<path class="st0" d="M91.9,163.1v-22.9h3.2l7.3,11.6c1.7,2.7,3,5.1,4.1,7.4l0.1,0c-0.3-3.1-0.3-5.8-0.3-9.4v-9.6h2.8v22.9h-3
		l-7.3-11.6c-1.6-2.5-3.1-5.2-4.3-7.6l-0.1,0c0.2,2.9,0.2,5.6,0.2,9.5v9.8H91.9z"/>
	<path class="st0" d="M133.9,151.4c0,7.9-4.8,12.1-10.6,12.1c-6.1,0-10.3-4.7-10.3-11.6c0-7.3,4.5-12,10.6-12
		C129.8,139.8,133.9,144.6,133.9,151.4z M116.1,151.8c0,4.9,2.7,9.3,7.3,9.3c4.7,0,7.3-4.3,7.3-9.5c0-4.6-2.4-9.3-7.3-9.3
		C118.5,142.2,116.1,146.7,116.1,151.8z"/>
	<path class="st0" d="M137.7,140.5c1.5-0.3,3.6-0.5,5.7-0.5c3.2,0,5.2,0.6,6.6,1.9c1.2,1,1.8,2.6,1.8,4.4c0,3-1.9,5-4.3,5.8v0.1
		c1.8,0.6,2.8,2.2,3.4,4.6c0.7,3.2,1.3,5.4,1.8,6.3h-3.1c-0.4-0.6-0.9-2.6-1.5-5.5c-0.7-3.2-1.9-4.4-4.6-4.5h-2.8v9.9h-3V140.5z
		 M140.7,150.9h3c3.2,0,5.2-1.7,5.2-4.4c0-3-2.1-4.2-5.3-4.3c-1.4,0-2.4,0.1-2.9,0.3V150.9z"/>
	<path class="st0" d="M160.7,142.7h-7v-2.5h17v2.5h-7v20.4h-3V142.7z"/>
	<path class="st0" d="M176.2,140.2v9.6h11.1v-9.6h3v22.9h-3v-10.7h-11.1v10.7h-3v-22.9H176.2z"/>
</g>
<g>
	<path class="st0" d="M86.3,186.9v-0.8l1-0.9c2.3-2.2,3.4-3.4,3.4-4.8c0-0.9-0.4-1.8-1.8-1.8c-0.8,0-1.5,0.4-1.9,0.8l-0.4-0.9
		c0.6-0.5,1.5-0.9,2.6-0.9c2,0,2.8,1.3,2.8,2.6c0,1.7-1.2,3-3.1,4.9l-0.7,0.7v0h4.1v1H86.3z"/>
	<path class="st0" d="M99.5,182.3c0,3.1-1.1,4.8-3.2,4.8c-1.8,0-3-1.7-3-4.7c0-3.1,1.3-4.7,3.2-4.7
		C98.4,177.7,99.5,179.4,99.5,182.3z M94.6,182.4c0,2.4,0.7,3.7,1.8,3.7c1.3,0,1.9-1.5,1.9-3.8c0-2.2-0.6-3.7-1.8-3.7
		C95.3,178.6,94.6,179.9,94.6,182.4z"/>
	<path class="st0" d="M103.3,179L103.3,179l-1.6,0.9l-0.2-0.9l2-1.1h1.1v9.1h-1.2V179z"/>
	<path class="st0" d="M108.5,186.1c0.3,0,0.6,0,1,0c0.7-0.1,1.4-0.4,1.9-0.9c0.6-0.5,1-1.3,1.2-2.4h0c-0.5,0.6-1.2,1-2.1,1
		c-1.6,0-2.7-1.2-2.7-2.8c0-1.7,1.2-3.2,3.1-3.2s3,1.5,3,3.8c0,2-0.7,3.4-1.6,4.3c-0.7,0.7-1.7,1.1-2.6,1.2
		c-0.4,0.1-0.8,0.1-1.1,0.1V186.1z M109,180.8c0,1.1,0.7,1.9,1.8,1.9c0.8,0,1.5-0.4,1.8-1c0.1-0.1,0.1-0.3,0.1-0.4
		c0-1.6-0.6-2.7-1.9-2.7C109.7,178.6,109,179.5,109,180.8z"/>
</g>
<path class="st2" d="M72.5,179.7v4.2c0,0.3-0.3,0.6-0.6,0.6l-14.1-1.5c-0.6-0.1-0.7-1,0-1.1l14.1-2.7
	C72.2,179.1,72.5,179.3,72.5,179.7z"/>
<path class="st2" d="M127.3,184.9v-4.2c0-0.3,0.3-0.6,0.6-0.6l14.1,1.5c0.6,0.1,0.7,1,0,1.1l-14.1,2.7
	C127.6,185.5,127.3,185.2,127.3,184.9z"/>
</svg>
