<?xml version="1.0" encoding="utf-8"?>
<!-- Generator: Adobe Illustrator 23.0.0, SVG Export Plug-In . SVG Version: 6.00 Build 0)  -->
<svg version="1.1" id="Layer_1" xmlns="http://www.w3.org/2000/svg" xmlns:xlink="http://www.w3.org/1999/xlink" x="0px" y="0px"
	 viewBox="0 0 24 24" style="enable-background:new 0 0 24 24;" xml:space="preserve">
<style type="text/css">
	.st0{fill:#353535;}
</style>
<path class="st0" d="M11.5,10c-1.4,0.4-3.1,0.6-5.1,0.6c0.4-1.7,1.5-3,3-3.8C10.2,7.9,10.9,8.9,11.5,10z M12.4,11.9
	c-0.1-0.3-0.3-0.6-0.4-0.8c-1.6,0.5-3.6,0.8-5.8,0.8l0,0.1c0,1.4,0.5,2.7,1.3,3.7C8.8,13.8,10.4,12.5,12.4,11.9z M8.4,16.6
	c1.6,1.2,3.7,1.6,5.6,0.8c-0.3-1.5-0.6-2.9-1.2-4.4C11.1,13.6,9.6,14.8,8.4,16.6z M15.5,7.4c-1-0.8-2.2-1.2-3.5-1.2
	c-0.5,0-1,0.1-1.4,0.2c0.8,1,1.4,2.1,2,3.2C13.9,9,14.8,8.3,15.5,7.4z M24,12c0,6.6-5.4,12-12,12S0,18.6,0,12S5.4,0,12,0
	S24,5.4,24,12z M19,12c0-3.9-3.1-7-7-7s-7,3.1-7,7s3.1,7,7,7S19,15.9,19,12z M13.2,10.7c0.2,0.3,0.3,0.7,0.4,1
	c1.3-0.2,2.6-0.2,4.1,0c-0.1-1.3-0.6-2.5-1.4-3.4C15.6,9.3,14.5,10.1,13.2,10.7z M14.1,12.8c0.5,1.3,0.9,2.7,1.1,4
	c1.3-0.9,2.2-2.3,2.5-3.9C16.4,12.7,15.2,12.6,14.1,12.8z"/>
</svg>
